<svg xmlns="http://www.w3.org/2000/svg" id="Line" viewBox="0 0 64 64"><title>1</title><path d="M16.37012,51.02051a42.30915,42.30915,0,0,0,10.39941,7.61963A11.82445,11.82445,0,0,0,32.28906,60c5.93181.48461,15.45483-7.47613,8.56842-12.56567L37.31543,45.312a4.93325,4.93325,0,0,0-7.252,2.80615.63158.63158,0,0,1-.37891.418.55757.55757,0,0,1-.50293-.04687A29.91987,29.91987,0,0,1,18.88476,38.20508a.57071.57071,0,0,1,.28609-.854,4.93826,4.93826,0,0,0,2.4113-1.561H52.63867a3.98522,3.98522,0,0,0,3.97559-3.98633V7.97607A3.98206,3.98206,0,0,0,52.63867,4H18.374a3.98409,3.98409,0,0,0-3.97558,3.97607V24.32843c-6.2935,2.49983-8.78775,10.44088-5.64553,16.32578A42.85674,42.85674,0,0,0,16.37012,51.02051ZM19.61267,26.0376a5.0452,5.0452,0,0,0-3.21424-1.853V7.97607a1.96333,1.96333,0,0,1,.05462-.44415L30.22461,21.81305l-8.88977,7.02057C21.07577,28.42854,19.89638,26.36183,19.61267,26.0376ZM22.62012,33.79a5.08768,5.08768,0,0,0-.28348-3.19885l9.28891-7.33576a5.47293,5.47293,0,0,0,7.76409-.00171L52.72607,33.78113C52.72328,33.81831,22.65267,33.77306,22.62012,33.79ZM54.55963,7.53192a1.96333,1.96333,0,0,1,.05463.44415V31.80371a1.98069,1.98069,0,0,1-.165.78992L40.79,21.8114ZM52.63867,6a1.94653,1.94653,0,0,1,.53858.08411L38.00293,21.8208a3.55063,3.55063,0,0,1-4.99316-.00049L17.83545,6.08411A1.9487,1.9487,0,0,1,18.374,6ZM14.22559,26.55713a2.943,2.943,0,0,1,4.01463,1.00442L20.207,30.85107a2.97187,2.97187,0,0,1-1.65925,4.59959,2.598,2.598,0,0,0-1.38367,3.774A32.01623,32.01623,0,0,0,21.9873,45.398a31.21888,31.21888,0,0,0,6.16407,4.80518,2.61246,2.61246,0,0,0,3.8281-1.50982,2.94906,2.94906,0,0,1,4.30961-1.66445l3.53709,2.11958a2.92314,2.92314,0,0,1,.99512,4.00928A9.99638,9.99638,0,0,1,32.28906,58a9.83619,9.83619,0,0,1-4.59472-1.13379,40.306,40.306,0,0,1-9.91016-7.25976,40.85215,40.85215,0,0,1-7.26074-9.88135A9.975,9.975,0,0,1,14.22559,26.55713Z"></path></svg>