<svg xmlns="http://www.w3.org/2000/svg" xmlns:xlink="http://www.w3.org/1999/xlink" id="Layer_1_1_" x="0px" y="0px" viewBox="0 0 64 64" style="enable-background:new 0 0 64 64;" xml:space="preserve"><g></g><path d="M28,23c0.552,0,1,0.449,1,1h2c0-1.654-1.346-3-3-3s-3,1.346-3,3h2C27,23.449,27.448,23,28,23z"></path><path d="M36,23c0.552,0,1,0.449,1,1h2c0-1.654-1.346-3-3-3s-3,1.346-3,3h2C35,23.449,35.448,23,36,23z"></path><path d="M32,48c-2.206,0-4,1.794-4,4s1.794,4,4,4s4-1.794,4-4S34.206,48,32,48z M32,54c-1.103,0-2-0.897-2-2s0.897-2,2-2 s2,0.897,2,2S33.103,54,32,54z"></path><path d="M56,47c0-8.271-6.729-15-15-15h-1.089c0.356-0.313,0.691-0.647,1.008-1H42c2.757,0,5-2.243,5-5v-1.762 c1.205-0.808,2-2.182,2-3.738c0-1.562-0.801-2.938-2.012-3.745C46.855,8.598,40.189,2,32,2S17.145,8.598,17.012,16.755 C15.801,17.562,15,18.938,15,20.5c0,2.481,2.019,4.5,4.5,4.5h0.681c0.468,2.771,1.884,5.218,3.909,7H23c-8.271,0-15,6.729-15,15v13 H2v2h7h5h36h5h7v-2h-6V47z M32,35c1.07,0,2.103-0.154,3.091-0.418L32,40.764l-3.091-6.182C29.897,34.846,30.93,35,32,35z M39.382,34 l-4,8h-1.764l4-8H39.382z M45,26c0,1.517-1.136,2.761-2.599,2.959c0.693-1.205,1.179-2.54,1.418-3.959H44.5 c0.171,0,0.334-0.032,0.5-0.051V26z M44.5,23H44v-5h0.5c1.379,0,2.5,1.122,2.5,2.5S45.879,23,44.5,23z M32,4 c6.846,0,12.46,5.323,12.952,12.046C44.801,16.03,44.655,16,44.5,16h-0.681C42.863,10.334,37.934,6,32,6s-10.863,4.334-11.819,10 H19.5c-0.155,0-0.301,0.03-0.452,0.046C19.54,9.323,25.154,4,32,4z M41.999,17.975C34.782,17.721,30,14.77,30,12 c0-0.552-0.447-1-1-1s-1,0.448-1,1c0,2.499-2.584,4.57-5.942,4.937C22.591,11.921,26.846,8,32,8 C37.505,8,41.985,12.473,41.999,17.975z M19.5,23c-1.379,0-2.5-1.122-2.5-2.5s1.121-2.5,2.5-2.5H20v5H19.5z M22,23v-4.056 c3.123-0.271,5.773-1.777,7.096-3.886C31.188,17.83,36.077,19.781,42,19.98V23c0,2.253-0.758,4.326-2.019,6H32v2h5.974 c-0.574,0.43-1.193,0.8-1.853,1.1c-2.624,1.192-5.619,1.192-8.244,0C24.417,30.526,22,27.044,22,23z M30.382,42h-1.764l-4-8h1.764 L30.382,42z M10,47c0-6.965,5.51-12.651,12.397-12.969L26.382,42H18c-2.757,0-5,2.243-5,5v13h-3V47z M15,60V47c0-1.654,1.346-3,3-3 h10h4h4h10c1.654,0,3,1.346,3,3v13H15z M51,60V47c0-2.757-2.243-5-5-5h-8.382l3.985-7.969C48.49,34.349,54,40.035,54,47v13H51z"></path><rect x="45" y="51" width="2" height="7"></rect><rect x="45" y="47" width="2" height="2"></rect><rect x="54" y="11" width="2" height="2"></rect><rect x="54" y="15" width="2" height="2"></rect><rect x="54" y="19" width="2" height="2"></rect><rect x="8" y="23" width="2" height="2"></rect><rect x="8" y="27" width="2" height="2"></rect><rect x="8" y="31" width="2" height="2"></rect></svg>