<svg xmlns="http://www.w3.org/2000/svg" xmlns:xlink="http://www.w3.org/1999/xlink" id="Glyph" x="0px" y="0px" viewBox="0 0 48 48" xml:space="preserve"><g>	<path d="M36,9.25H12c-1.5166,0-2.75,1.2334-2.75,2.75v16v2c0,1.5166,1.2334,2.75,2.75,2.75h7.95898l-1.5,4.5H16  c-0.41406,0-0.75,0.33594-0.75,0.75s0.33594,0.75,0.75,0.75h16c0.41406,0,0.75-0.33594,0.75-0.75s-0.33594-0.75-0.75-0.75h-2.45898  l-1.5-4.5H36c1.5166,0,2.75-1.2334,2.75-2.75v-2V12C38.75,10.4834,37.5166,9.25,36,9.25z M10.75,12  c0-0.68945,0.56055-1.25,1.25-1.25h24c0.68945,0,1.25,0.56055,1.25,1.25v15.25h-26.5V12z"></path>	<path d="M24,12.25c-0.41406,0-0.75,0.33594-0.75,0.75v2c0,0.41406,0.33594,0.75,0.75,0.75s0.75-0.33594,0.75-0.75v-2  C24.75,12.58594,24.41406,12.25,24,12.25z"></path>	<path d="M24,22.25c-0.41406,0-0.75,0.33594-0.75,0.75v2c0,0.41406,0.33594,0.75,0.75,0.75s0.75-0.33594,0.75-0.75v-2  C24.75,22.58594,24.41406,22.25,24,22.25z"></path>	<path d="M26.82819,16.91923c0.19281-0.00003,0.38557-0.07244,0.53021-0.21708l1.41406-1.41406  c0.29297-0.29297,0.29297-0.76758,0-1.06055s-0.76758-0.29297-1.06055,0c0,0-1.41087,1.41087-1.41406,1.41406  C25.84207,16.09738,26.18355,16.91932,26.82819,16.91923z"></path>	<path d="M20.6416,21.29785l-1.41406,1.41406c-0.29296,0.29296-0.29297,0.76754-0.00004,1.06051  c0.27887,0.27891,0.77388,0.28674,1.06059,0.00004l1.41406-1.41406c0.29297-0.29297,0.29297-0.76758,0-1.06055  S20.93457,21.00488,20.6416,21.29785z"></path>	<path d="M30,18.25h-2c-0.41406,0-0.75,0.33594-0.75,0.75s0.33594,0.75,0.75,0.75h2c0.41406,0,0.75-0.33594,0.75-0.75  S30.41406,18.25,30,18.25z"></path>	<path d="M20.75,19c0-0.41406-0.33594-0.75-0.75-0.75h-2c-0.41406,0-0.75,0.33594-0.75,0.75s0.33594,0.75,0.75,0.75h2  C20.41406,19.75,20.75,19.41406,20.75,19z"></path>	<path d="M27.3584,21.29785c-0.29297-0.29297-0.76758-0.29297-1.06055,0s-0.29297,0.76758,0,1.06055  c0,0,1.41097,1.41097,1.41406,1.41406c0.27941,0.27941,0.77341,0.28715,1.06055,0.00001c0.29297-0.29297,0.29297-0.76758,0-1.06055  L27.3584,21.29785z"></path></g></svg>