<svg xmlns="http://www.w3.org/2000/svg" id="line" viewBox="0 0 64 64"><defs><style>.cls-1{fill:#231f20;}</style></defs><title>1</title><path class="cls-1" d="M52.28955,15.86279A25.89126,25.89126,0,0,0,31.94531,8.373a25.40589,25.40589,0,0,0-9.44287,2.63965.9999.9999,0,0,0,.89746,1.7871,23.41312,23.41312,0,0,1,8.70166-2.43261,23.85585,23.85585,0,1,1-9.90674,44.49707,4.281,4.281,0,0,0-3.48632-.32471l-7.63282,2.5415,2.54053-7.62988a4.2407,4.2407,0,0,0-.32324-3.478A23.92479,23.92479,0,0,1,10.18652,32.917a23.35066,23.35066,0,0,1,2.667-9.71094,1.0001,1.0001,0,0,0-1.77051-.93066A25.34892,25.34892,0,0,0,8.189,32.81494a25.92736,25.92736,0,0,0,3.37012,14.15479,2.24621,2.24621,0,0,1,.16065,1.8457L8.54688,58.34521a1,1,0,0,0,1.26464,1.26465L19.34424,56.436a2.27781,2.27781,0,0,1,1.85791.16455A25.82025,25.82025,0,0,0,34.04736,60q.64674,0,1.2959-.03223a25.85314,25.85314,0,0,0,16.94629-44.105Z"></path><path class="cls-1" d="M24.43213,30.02344l6.15478,1.65283a1.00014,1.00014,0,0,0,1.2251-1.2251l-1.65283-6.15576a3.12713,3.12713,0,0,0-.80762-1.39746L14.21417,7.761l-.00079-.00122-.00122-.0008L11.36768,4.91455a3.12446,3.12446,0,0,0-4.415,0L5.05029,6.81641H5.0498a3.12638,3.12638,0,0,0,.00049,4.41552l17.98389,17.9834A3.12777,3.12777,0,0,0,24.43213,30.02344Zm3.21466-6.00214a.9341.9341,0,0,0-.08771.05829l-3.34326,3.34326a.9341.9341,0,0,0-.05829.08771L10.01691,13.3703,13.50616,9.881Zm1.78387,5.27362-3.35711-.90167,2.45562-2.45563ZM6.46484,8.23047,8.3667,6.32861a1.12341,1.12341,0,0,1,1.58691,0L12.092,8.467,8.60278,11.9563,6.46436,9.81787A1.12356,1.12356,0,0,1,6.46484,8.23047Z"></path><path class="cls-1" d="M50.417,36.38916H23.11035a1,1,0,0,0,0,2H50.417a1,1,0,0,0,0-2Z"></path><path class="cls-1" d="M50.417,43.06836H30.84619a1,1,0,1,0,0,2H50.417a1,1,0,0,0,0-2Z"></path><path class="cls-1" d="M23.86163,44.06848a1.06119,1.06119,0,1,0,1.06116-1.06116A1.06116,1.06116,0,0,0,23.86163,44.06848Z"></path></svg>